<mxfile host="app.diagrams.net" modified="2024-02-05T04:15:19.722Z" agent="Mozilla/5.0 (Macintosh; Intel Mac OS X 10.15; rv:122.0) Gecko/20100101 Firefox/122.0" etag="OuY1-aVi4xeOCOzr29_Y" version="23.1.1" type="device">
  <diagram id="hedKQnrYojtoNneebHL0" name="CharacterGame">
    <mxGraphModel dx="1318" dy="577" grid="0" gridSize="10" guides="1" tooltips="1" connect="1" arrows="1" fold="1" page="1" pageScale="1" pageWidth="827" pageHeight="1169" math="0" shadow="0">
      <root>
        <mxCell id="0" />
        <mxCell id="1" parent="0" />
        <mxCell id="Vxvh0fZoTZz_ePv99iRF-1" value="&lt;p style=&quot;margin:0px;margin-top:4px;text-align:center;&quot;&gt;&lt;i&gt;&amp;lt;&amp;lt;Interface&amp;gt;&amp;gt;&lt;/i&gt;&lt;br&gt;&lt;b&gt;WeaponBehavior&lt;/b&gt;&lt;br&gt;&lt;/p&gt;&lt;hr size=&quot;1&quot;&gt;&lt;p style=&quot;margin:0px;margin-left:4px;&quot;&gt;+ field1: none&lt;br&gt;&lt;/p&gt;&lt;hr size=&quot;1&quot;&gt;&lt;p style=&quot;margin:0px;margin-left:4px;&quot;&gt;+&amp;nbsp;useWeapon(void): void&lt;br&gt;&lt;/p&gt;" style="verticalAlign=top;align=left;overflow=fill;fontSize=12;fontFamily=Helvetica;html=1;rounded=0;shadow=0;comic=0;labelBackgroundColor=none;strokeWidth=1" vertex="1" parent="1">
          <mxGeometry x="523" y="69" width="190" height="140" as="geometry" />
        </mxCell>
        <mxCell id="3Wf8UEWp3Dxp0oOQV-vo-1" value="KnifeBehavior" style="swimlane;html=1;fontStyle=0;childLayout=stackLayout;horizontal=1;startSize=26;fillColor=none;horizontalStack=0;resizeParent=1;resizeLast=0;collapsible=1;marginBottom=0;swimlaneFillColor=#ffffff;rounded=0;shadow=0;comic=0;labelBackgroundColor=none;strokeWidth=1;fontFamily=Verdana;fontSize=10;align=center;" vertex="1" parent="1">
          <mxGeometry x="434" y="268" width="160" height="66" as="geometry" />
        </mxCell>
        <mxCell id="3Wf8UEWp3Dxp0oOQV-vo-2" value="+&amp;nbsp;useWeapon(void): void" style="text;html=1;strokeColor=none;fillColor=none;align=left;verticalAlign=top;spacingLeft=4;spacingRight=4;whiteSpace=wrap;overflow=hidden;rotatable=0;points=[[0,0.5],[1,0.5]];portConstraint=eastwest;" vertex="1" parent="3Wf8UEWp3Dxp0oOQV-vo-1">
          <mxGeometry y="26" width="160" height="26" as="geometry" />
        </mxCell>
        <mxCell id="dmwN4ByqKsnjal_ebq2K-2" value="BowAndArrowBehavior" style="swimlane;html=1;fontStyle=0;childLayout=stackLayout;horizontal=1;startSize=26;fillColor=none;horizontalStack=0;resizeParent=1;resizeLast=0;collapsible=1;marginBottom=0;swimlaneFillColor=#ffffff;rounded=0;shadow=0;comic=0;labelBackgroundColor=none;strokeWidth=1;fontFamily=Verdana;fontSize=10;align=center;" vertex="1" parent="1">
          <mxGeometry x="635" y="268" width="160" height="64" as="geometry" />
        </mxCell>
        <mxCell id="dmwN4ByqKsnjal_ebq2K-3" value="+&amp;nbsp;useWeapon(void): void" style="text;html=1;strokeColor=none;fillColor=none;align=left;verticalAlign=top;spacingLeft=4;spacingRight=4;whiteSpace=wrap;overflow=hidden;rotatable=0;points=[[0,0.5],[1,0.5]];portConstraint=eastwest;" vertex="1" parent="dmwN4ByqKsnjal_ebq2K-2">
          <mxGeometry y="26" width="160" height="26" as="geometry" />
        </mxCell>
        <mxCell id="dmwN4ByqKsnjal_ebq2K-6" value="AxeBehavior" style="swimlane;html=1;fontStyle=0;childLayout=stackLayout;horizontal=1;startSize=26;fillColor=none;horizontalStack=0;resizeParent=1;resizeLast=0;collapsible=1;marginBottom=0;swimlaneFillColor=#ffffff;rounded=0;shadow=0;comic=0;labelBackgroundColor=none;strokeWidth=1;fontFamily=Verdana;fontSize=10;align=center;" vertex="1" parent="1">
          <mxGeometry x="635" y="366" width="160" height="59" as="geometry" />
        </mxCell>
        <mxCell id="dmwN4ByqKsnjal_ebq2K-7" value="+&amp;nbsp;useWeapon(void): void" style="text;html=1;strokeColor=none;fillColor=none;align=left;verticalAlign=top;spacingLeft=4;spacingRight=4;whiteSpace=wrap;overflow=hidden;rotatable=0;points=[[0,0.5],[1,0.5]];portConstraint=eastwest;" vertex="1" parent="dmwN4ByqKsnjal_ebq2K-6">
          <mxGeometry y="26" width="160" height="26" as="geometry" />
        </mxCell>
        <mxCell id="dmwN4ByqKsnjal_ebq2K-10" value="SwordBehavior" style="swimlane;html=1;fontStyle=0;childLayout=stackLayout;horizontal=1;startSize=26;fillColor=none;horizontalStack=0;resizeParent=1;resizeLast=0;collapsible=1;marginBottom=0;swimlaneFillColor=#ffffff;rounded=0;shadow=0;comic=0;labelBackgroundColor=none;strokeWidth=1;fontFamily=Verdana;fontSize=10;align=center;" vertex="1" parent="1">
          <mxGeometry x="434" y="366" width="160" height="53" as="geometry" />
        </mxCell>
        <mxCell id="dmwN4ByqKsnjal_ebq2K-11" value="+&amp;nbsp;useWeapon(void): void" style="text;html=1;strokeColor=none;fillColor=none;align=left;verticalAlign=top;spacingLeft=4;spacingRight=4;whiteSpace=wrap;overflow=hidden;rotatable=0;points=[[0,0.5],[1,0.5]];portConstraint=eastwest;" vertex="1" parent="dmwN4ByqKsnjal_ebq2K-10">
          <mxGeometry y="26" width="160" height="26" as="geometry" />
        </mxCell>
        <mxCell id="Hm3YNk5D_qYQGTu5DQbW-5" style="edgeStyle=orthogonalEdgeStyle;rounded=0;html=1;dashed=1;labelBackgroundColor=none;startFill=0;endArrow=open;endFill=0;endSize=10;fontFamily=Verdana;fontSize=10;exitX=0.5;exitY=0;exitDx=0;exitDy=0;entryX=0.153;entryY=1;entryDx=0;entryDy=0;entryPerimeter=0;" edge="1" parent="1" source="3Wf8UEWp3Dxp0oOQV-vo-1" target="Vxvh0fZoTZz_ePv99iRF-1">
          <mxGeometry relative="1" as="geometry">
            <Array as="points" />
            <mxPoint x="254" y="194" as="sourcePoint" />
            <mxPoint x="395" y="194" as="targetPoint" />
          </mxGeometry>
        </mxCell>
        <mxCell id="Hm3YNk5D_qYQGTu5DQbW-8" style="edgeStyle=orthogonalEdgeStyle;rounded=0;html=1;dashed=1;labelBackgroundColor=none;startFill=0;endArrow=open;endFill=0;endSize=10;fontFamily=Verdana;fontSize=10;exitX=0.5;exitY=0;exitDx=0;exitDy=0;entryX=0.837;entryY=1;entryDx=0;entryDy=0;entryPerimeter=0;" edge="1" parent="1" source="dmwN4ByqKsnjal_ebq2K-2" target="Vxvh0fZoTZz_ePv99iRF-1">
          <mxGeometry relative="1" as="geometry">
            <Array as="points" />
            <mxPoint x="284" y="224" as="sourcePoint" />
            <mxPoint x="616" y="207" as="targetPoint" />
          </mxGeometry>
        </mxCell>
        <mxCell id="Hm3YNk5D_qYQGTu5DQbW-9" style="edgeStyle=orthogonalEdgeStyle;rounded=0;html=1;dashed=1;labelBackgroundColor=none;startFill=0;endArrow=open;endFill=0;endSize=10;fontFamily=Verdana;fontSize=10;exitX=0.5;exitY=0;exitDx=0;exitDy=0;entryX=0.7;entryY=1.007;entryDx=0;entryDy=0;entryPerimeter=0;" edge="1" parent="1" source="dmwN4ByqKsnjal_ebq2K-6" target="Vxvh0fZoTZz_ePv99iRF-1">
          <mxGeometry relative="1" as="geometry">
            <Array as="points">
              <mxPoint x="628" y="366" />
              <mxPoint x="628" y="257" />
              <mxPoint x="656" y="257" />
            </Array>
            <mxPoint x="294" y="234" as="sourcePoint" />
            <mxPoint x="435" y="234" as="targetPoint" />
          </mxGeometry>
        </mxCell>
        <mxCell id="Hm3YNk5D_qYQGTu5DQbW-11" style="edgeStyle=orthogonalEdgeStyle;rounded=0;html=1;dashed=1;labelBackgroundColor=none;startFill=0;endArrow=open;endFill=0;endSize=10;fontFamily=Verdana;fontSize=10;exitX=0.5;exitY=0;exitDx=0;exitDy=0;entryX=0.5;entryY=1;entryDx=0;entryDy=0;" edge="1" parent="1" source="dmwN4ByqKsnjal_ebq2K-10" target="Vxvh0fZoTZz_ePv99iRF-1">
          <mxGeometry relative="1" as="geometry">
            <Array as="points">
              <mxPoint x="514" y="349" />
              <mxPoint x="618" y="349" />
            </Array>
            <mxPoint x="314" y="254" as="sourcePoint" />
            <mxPoint x="455" y="254" as="targetPoint" />
          </mxGeometry>
        </mxCell>
        <mxCell id="7qh-j6ECLoVk-F21xAza-1" value="Character" style="swimlane;html=1;fontStyle=0;childLayout=stackLayout;horizontal=1;startSize=26;fillColor=none;horizontalStack=0;resizeParent=1;resizeLast=0;collapsible=1;marginBottom=0;swimlaneFillColor=#ffffff;rounded=0;shadow=0;comic=0;labelBackgroundColor=none;strokeWidth=1;fontFamily=Verdana;fontSize=10;align=center;" vertex="1" parent="1">
          <mxGeometry x="120" y="69" width="160" height="83" as="geometry" />
        </mxCell>
        <mxCell id="7qh-j6ECLoVk-F21xAza-2" value="+ WeaponBehavior weapon" style="text;html=1;strokeColor=none;fillColor=none;align=left;verticalAlign=top;spacingLeft=4;spacingRight=4;whiteSpace=wrap;overflow=hidden;rotatable=0;points=[[0,0.5],[1,0.5]];portConstraint=eastwest;" vertex="1" parent="7qh-j6ECLoVk-F21xAza-1">
          <mxGeometry y="26" width="160" height="26" as="geometry" />
        </mxCell>
        <mxCell id="7qh-j6ECLoVk-F21xAza-3" value="+ fight()" style="text;html=1;strokeColor=none;fillColor=none;align=left;verticalAlign=top;spacingLeft=4;spacingRight=4;whiteSpace=wrap;overflow=hidden;rotatable=0;points=[[0,0.5],[1,0.5]];portConstraint=eastwest;" vertex="1" parent="7qh-j6ECLoVk-F21xAza-1">
          <mxGeometry y="52" width="160" height="26" as="geometry" />
        </mxCell>
        <mxCell id="7qh-j6ECLoVk-F21xAza-10" value="King" style="swimlane;html=1;fontStyle=0;childLayout=stackLayout;horizontal=1;startSize=26;fillColor=none;horizontalStack=0;resizeParent=1;resizeLast=0;collapsible=1;marginBottom=0;swimlaneFillColor=#ffffff;rounded=0;shadow=0;comic=0;labelBackgroundColor=none;strokeWidth=1;fontFamily=Verdana;fontSize=10;align=center;" vertex="1" parent="1">
          <mxGeometry x="27" y="177" width="160" height="83" as="geometry" />
        </mxCell>
        <mxCell id="7qh-j6ECLoVk-F21xAza-12" value="+ fight()" style="text;html=1;strokeColor=none;fillColor=none;align=left;verticalAlign=top;spacingLeft=4;spacingRight=4;whiteSpace=wrap;overflow=hidden;rotatable=0;points=[[0,0.5],[1,0.5]];portConstraint=eastwest;" vertex="1" parent="7qh-j6ECLoVk-F21xAza-10">
          <mxGeometry y="26" width="160" height="26" as="geometry" />
        </mxCell>
        <mxCell id="7qh-j6ECLoVk-F21xAza-13" value="Queen" style="swimlane;html=1;fontStyle=0;childLayout=stackLayout;horizontal=1;startSize=26;fillColor=none;horizontalStack=0;resizeParent=1;resizeLast=0;collapsible=1;marginBottom=0;swimlaneFillColor=#ffffff;rounded=0;shadow=0;comic=0;labelBackgroundColor=none;strokeWidth=1;fontFamily=Verdana;fontSize=10;align=center;" vertex="1" parent="1">
          <mxGeometry x="231" y="177" width="160" height="83" as="geometry" />
        </mxCell>
        <mxCell id="7qh-j6ECLoVk-F21xAza-15" value="+ fight()" style="text;html=1;strokeColor=none;fillColor=none;align=left;verticalAlign=top;spacingLeft=4;spacingRight=4;whiteSpace=wrap;overflow=hidden;rotatable=0;points=[[0,0.5],[1,0.5]];portConstraint=eastwest;" vertex="1" parent="7qh-j6ECLoVk-F21xAza-13">
          <mxGeometry y="26" width="160" height="26" as="geometry" />
        </mxCell>
        <mxCell id="7qh-j6ECLoVk-F21xAza-16" value="Troll" style="swimlane;html=1;fontStyle=0;childLayout=stackLayout;horizontal=1;startSize=26;fillColor=none;horizontalStack=0;resizeParent=1;resizeLast=0;collapsible=1;marginBottom=0;swimlaneFillColor=#ffffff;rounded=0;shadow=0;comic=0;labelBackgroundColor=none;strokeWidth=1;fontFamily=Verdana;fontSize=10;align=center;" vertex="1" parent="1">
          <mxGeometry x="231" y="290" width="160" height="83" as="geometry" />
        </mxCell>
        <mxCell id="7qh-j6ECLoVk-F21xAza-18" value="+ fight()" style="text;html=1;strokeColor=none;fillColor=none;align=left;verticalAlign=top;spacingLeft=4;spacingRight=4;whiteSpace=wrap;overflow=hidden;rotatable=0;points=[[0,0.5],[1,0.5]];portConstraint=eastwest;" vertex="1" parent="7qh-j6ECLoVk-F21xAza-16">
          <mxGeometry y="26" width="160" height="26" as="geometry" />
        </mxCell>
        <mxCell id="7qh-j6ECLoVk-F21xAza-19" value="Knight" style="swimlane;html=1;fontStyle=0;childLayout=stackLayout;horizontal=1;startSize=26;fillColor=none;horizontalStack=0;resizeParent=1;resizeLast=0;collapsible=1;marginBottom=0;swimlaneFillColor=#ffffff;rounded=0;shadow=0;comic=0;labelBackgroundColor=none;strokeWidth=1;fontFamily=Verdana;fontSize=10;align=center;" vertex="1" parent="1">
          <mxGeometry x="27" y="290" width="160" height="83" as="geometry" />
        </mxCell>
        <mxCell id="7qh-j6ECLoVk-F21xAza-21" value="+ fight()" style="text;html=1;strokeColor=none;fillColor=none;align=left;verticalAlign=top;spacingLeft=4;spacingRight=4;whiteSpace=wrap;overflow=hidden;rotatable=0;points=[[0,0.5],[1,0.5]];portConstraint=eastwest;" vertex="1" parent="7qh-j6ECLoVk-F21xAza-19">
          <mxGeometry y="26" width="160" height="26" as="geometry" />
        </mxCell>
        <mxCell id="-jWervTVIUwb-T0oJPdG-6" style="edgeStyle=orthogonalEdgeStyle;rounded=0;orthogonalLoop=1;jettySize=auto;html=1;exitX=1;exitY=0.5;exitDx=0;exitDy=0;entryX=0.011;entryY=0.093;entryDx=0;entryDy=0;entryPerimeter=0;" edge="1" parent="1" source="7qh-j6ECLoVk-F21xAza-2" target="Vxvh0fZoTZz_ePv99iRF-1">
          <mxGeometry relative="1" as="geometry" />
        </mxCell>
        <mxCell id="siCOZAJ5dxAH6rpv6uzy-3" value="" style="edgeStyle=none;orthogonalLoop=1;jettySize=auto;html=1;rounded=0;shape=flexArrow;entryX=0.806;entryY=1.154;entryDx=0;entryDy=0;entryPerimeter=0;exitX=0.5;exitY=0;exitDx=0;exitDy=0;" edge="1" parent="1" source="7qh-j6ECLoVk-F21xAza-13" target="7qh-j6ECLoVk-F21xAza-3">
          <mxGeometry width="80" relative="1" as="geometry">
            <mxPoint x="329" y="513" as="sourcePoint" />
            <mxPoint x="409" y="513" as="targetPoint" />
            <Array as="points" />
          </mxGeometry>
        </mxCell>
        <mxCell id="siCOZAJ5dxAH6rpv6uzy-7" value="" style="edgeStyle=none;orthogonalLoop=1;jettySize=auto;html=1;rounded=0;shape=flexArrow;entryX=0.619;entryY=1.115;entryDx=0;entryDy=0;entryPerimeter=0;exitX=0.5;exitY=0;exitDx=0;exitDy=0;" edge="1" parent="1" source="7qh-j6ECLoVk-F21xAza-16" target="7qh-j6ECLoVk-F21xAza-3">
          <mxGeometry width="80" relative="1" as="geometry">
            <mxPoint x="321" y="187" as="sourcePoint" />
            <mxPoint x="259" y="161" as="targetPoint" />
            <Array as="points" />
          </mxGeometry>
        </mxCell>
        <mxCell id="siCOZAJ5dxAH6rpv6uzy-8" value="" style="edgeStyle=none;orthogonalLoop=1;jettySize=auto;html=1;rounded=0;shape=flexArrow;exitX=0.5;exitY=0;exitDx=0;exitDy=0;" edge="1" parent="1" source="7qh-j6ECLoVk-F21xAza-19" target="7qh-j6ECLoVk-F21xAza-3">
          <mxGeometry width="80" relative="1" as="geometry">
            <mxPoint x="331" y="197" as="sourcePoint" />
            <mxPoint x="269" y="171" as="targetPoint" />
            <Array as="points" />
          </mxGeometry>
        </mxCell>
        <mxCell id="siCOZAJ5dxAH6rpv6uzy-9" value="" style="edgeStyle=none;orthogonalLoop=1;jettySize=auto;html=1;rounded=0;shape=flexArrow;exitX=0.5;exitY=0;exitDx=0;exitDy=0;" edge="1" parent="1" source="7qh-j6ECLoVk-F21xAza-10">
          <mxGeometry width="80" relative="1" as="geometry">
            <mxPoint x="341" y="207" as="sourcePoint" />
            <mxPoint x="148" y="155" as="targetPoint" />
            <Array as="points" />
          </mxGeometry>
        </mxCell>
        <mxCell id="ozKOGqt24bmYIApVJBsm-1" value="&lt;div&gt;Character&lt;/div&gt;" style="shape=umlFrame;whiteSpace=wrap;html=1;rounded=0;shadow=0;comic=0;labelBackgroundColor=none;strokeWidth=1;fontFamily=Verdana;fontSize=10;align=center;" vertex="1" parent="1">
          <mxGeometry x="20" y="20" width="820" height="1060" as="geometry" />
        </mxCell>
      </root>
    </mxGraphModel>
  </diagram>
</mxfile>
